<svg width="93" height="93" viewBox="0 0 93 93" fill="none" xmlns="http://www.w3.org/2000/svg">
<g clipPath="url(#clip0_215_3672)">
<path d="M6.00903 70.0538L74.6002 79.5701L86.9433 13.3301L24.6703 4.9624L6.00903 70.0538Z" fill="#206BB5"/>
<path d="M6.00903 70.0537L11.1579 78.0045L80.7436 89.0905L74.606 79.57L6.00903 70.0537Z" fill="#1A8F45"/>
<path d="M21.068 1.83008C21.068 1.83008 7.27227 65.6119 4.35239 67.4922C1.43251 69.3782 73.5941 78.0046 73.5941 78.0046C73.5941 78.0046 86.7957 14.7848 86.9431 13.333C87.0906 11.8811 21.068 1.83295 21.068 1.83295" fill="#206BB5"/>
<path d="M22.6595 3.89431C22.6595 3.89431 6.37897 61.4374 3.46342 63.3206C0.557995 65.2066 73.9641 75.9361 73.9641 75.9361C73.9641 75.9361 86.1481 14.9861 86.2883 13.5342C86.4372 12.0823 22.658 3.88281 22.658 3.88281" fill="#196736"/>
<path d="M86.9431 13.3301L92.5415 18.7897L80.7376 89.0906L74.6001 79.5701L86.9431 13.3301Z" fill="#FAED24"/>
<path d="M21.0682 1.83008C21.0682 1.83008 3.24533 55.7018 0.331229 57.5821C-2.58865 59.4681 69.2737 76.5369 72.9235 73.0036C76.5734 69.4702 86.8017 14.7863 86.9491 13.3344C87.0965 11.8825 21.074 1.83439 21.074 1.83439" fill="#2B357F"/>
<path d="M21.068 1.83008C21.068 1.83008 5.40036 49.3107 2.48337 51.2082C-0.436509 53.0942 57.2369 75.7751 63.295 70.199C65.9156 67.7883 72.0257 57.2184 76.1222 47.2939C83.0634 30.4809 86.8506 14.2314 86.9373 13.3358C87.0848 11.884 21.0622 1.83583 21.0622 1.83583" fill="#F7AD1A"/>
</g>
<defs>
<clipPath id="clip0_215_3672">
<rect width="92.5111" height="92" fill="white" transform="translate(0.244385 0.392578)"/>
</clipPath>
</defs>
</svg>
